<?xml version="1.0" encoding="UTF-8"?>
<svg version="1.1" xmlns="http://www.w3.org/2000/svg" width="225" height="225">
<path d="M0 0 C2.86942113 2.26533247 3.83907612 3.51722837 5 7 C5.58070822 14.18284249 4.47910551 20.8851022 2.953125 27.87890625 C2.74065125 28.88984848 2.52817749 29.90079071 2.30926514 30.94236755 C1.63222252 34.15115094 0.94115123 37.35672958 0.25 40.5625 C-0.19879554 42.68536126 -0.64671907 44.80840707 -1.09375 46.93164062 C-3.17788904 56.78270939 -5.34334478 66.60813863 -7.68395996 76.40144348 C-9.01555777 81.99317998 -10.16666582 87.60583897 -11.25 93.25 C-13.64191577 105.44513178 -16.25425517 117.58808776 -18.90820312 129.72827148 C-20.63102883 137.61806468 -22.32159205 145.51173087 -23.9296875 153.42578125 C-24.39002787 155.67091064 -24.85101624 157.91590626 -25.31207275 160.16088867 C-25.60011371 161.57608306 -25.88420424 162.99208825 -26.16400146 164.40893555 C-29.71948428 182.40610385 -29.71948428 182.40610385 -35.6875 187.125 C-40.8580084 188.49079467 -45.48368231 187.39115811 -50.15942383 184.80615234 C-52.35462326 183.3143686 -54.46176878 181.74703308 -56.5625 180.125 C-57.72313965 179.25814575 -57.72313965 179.25814575 -58.90722656 178.3737793 C-61.28204739 176.5960549 -63.6413854 174.79914545 -66 173 C-67.40897819 171.93983877 -68.81908592 170.88117659 -70.23046875 169.82421875 C-72.22691607 168.32868424 -74.22304391 166.83278234 -76.21630859 165.33300781 C-80.67974791 161.97617855 -85.1631347 158.64933819 -89.6875 155.375 C-90.25178711 154.96096924 -90.81607422 154.54693848 -91.39746094 154.12036133 C-94.47967045 151.90659651 -97.40964785 150.23897124 -101 149 C-102.5641085 150.39403068 -104.1262085 151.79031505 -105.6875 153.1875 C-106.55761719 153.96480469 -107.42773438 154.74210938 -108.32421875 155.54296875 C-111.92713708 158.85134193 -115.3396051 162.32274396 -118.75390625 165.82421875 C-119.69007875 166.77867077 -120.6262768 167.73309771 -121.5625 168.6875 C-122.03107422 169.17283203 -122.49964844 169.65816406 -122.98242188 170.15820312 C-126.42212972 173.64601877 -128.77778615 175.89899028 -133.75 176.125 C-134.4925 176.08375 -135.235 176.0425 -136 176 C-135.75291671 170.16753404 -135.4743826 164.33735328 -135.17529297 158.50732422 C-135.01652814 155.33070102 -134.87098818 152.1536688 -134.72735596 148.97633362 C-134.59601221 146.17811324 -134.44773593 143.38094337 -134.2958374 140.58377075 C-134.22387904 139.1997176 -134.15843985 137.81530942 -134.09967041 136.43063354 C-134.01492914 134.46334092 -133.90437373 132.49721294 -133.79296875 130.53125 C-133.7364917 129.39236328 -133.68001465 128.25347656 -133.62182617 127.08007812 C-132.45643636 121.307578 -128.34688557 118.28701168 -123.875 114.8125 C-119.02613562 110.93211719 -114.67148127 106.77496668 -110.33203125 102.33984375 C-107.67863768 99.67756109 -104.90661575 97.21485928 -102.0546875 94.76953125 C-99.71433197 92.75397791 -97.4186299 90.69355407 -95.125 88.625 C-94.28453125 87.86703125 -93.4440625 87.1090625 -92.578125 86.328125 C-91.72734375 85.55984375 -90.8765625 84.7915625 -90 84 C-80.5150463 75.43479938 -80.5150463 75.43479938 -76 71.5 C-69.19455244 65.56564973 -62.52146599 59.48615207 -55.875 53.375 C-44.43844896 42.86774814 -44.43844896 42.86774814 -39.0625 38.75 C-36.74068239 37.08669291 -36.74068239 37.08669291 -36 34 C-47.19841863 38.96132471 -57.24248064 45.77163094 -67.50195312 52.39648438 C-70.54042194 54.34690103 -73.6054848 56.24418047 -76.6875 58.125 C-81.82393888 61.26282453 -86.9158854 64.46595954 -92 67.6875 C-99.81098085 72.63585081 -107.65867545 77.52208334 -115.53125 82.37182617 C-122.74727413 86.82261162 -129.89639085 91.3747322 -137.03808594 95.94360352 C-140.14582453 97.92801902 -143.25986913 99.90221374 -146.375 101.875 C-147.42816406 102.55046875 -148.48132813 103.2259375 -149.56640625 103.921875 C-150.58347656 104.56382813 -151.60054688 105.20578125 -152.6484375 105.8671875 C-154.01234619 106.73512939 -154.01234619 106.73512939 -155.40380859 107.62060547 C-159.70817874 109.90758039 -162.11990789 110.22024505 -166.87109375 109.03125 C-168.3971049 108.5325403 -169.919052 108.02128406 -171.4375 107.5 C-173.13530906 106.93977794 -174.83323043 106.37989618 -176.53125 105.8203125 C-177.42070312 105.52286133 -178.31015625 105.22541016 -179.2265625 104.91894531 C-183.00258059 103.66780692 -186.7949548 102.47101109 -190.58862305 101.2746582 C-193.39092148 100.38970922 -196.18990689 99.49492708 -198.98828125 98.59765625 C-201.95870336 97.6460756 -204.93231136 96.7111609 -207.91796875 95.80859375 C-208.97628906 95.47988281 -210.03460938 95.15117188 -211.125 94.8125 C-211.99382812 94.55082031 -212.86265625 94.28914063 -213.7578125 94.01953125 C-216.51063322 92.76781312 -218.09078329 91.33541999 -220 89 C-220.3125 85.625 -220.3125 85.625 -219 82 C-213.04922244 75.85086319 -203.93553452 73.49910913 -196.05566406 70.72802734 C-192.95880585 69.63125404 -189.88667673 68.471126 -186.8125 67.3125 C-185.47006507 66.80855915 -184.12761625 66.30465532 -182.78515625 65.80078125 C-181.19001802 65.2007498 -179.59497513 64.60046485 -178 64 C-177.02530762 63.63310059 -176.05061523 63.26620117 -175.04638672 62.88818359 C-157.19055923 56.15892513 -139.39105273 49.29182678 -121.61328125 42.359375 C-120.90730804 42.08411987 -120.20133484 41.80886475 -119.47396851 41.52526855 C-115.80808787 40.09576562 -112.14273793 38.66492175 -108.47802734 37.23242188 C-100.6523486 34.17695797 -92.81428349 31.16163169 -84.943573 28.22402954 C-78.10181601 25.66975808 -71.28119346 23.06114039 -64.4616394 20.44827271 C-62.24757018 19.60012728 -60.03313507 18.75294335 -57.81860352 17.90600586 C-51.45303036 15.47132978 -45.08820907 13.03476559 -38.7265625 10.58984375 C-34.58577986 8.99973883 -30.43964737 7.42470042 -26.28759766 5.86425781 C-24.72259032 5.2729957 -23.1598539 4.67569711 -21.59912109 4.07324219 C-19.27982861 3.17950059 -16.95371311 2.30634685 -14.625 1.4375 C-13.61651001 1.04123413 -13.61651001 1.04123413 -12.58764648 0.63696289 C-8.02758531 -1.03044874 -4.70811636 -1.14224005 0 0 Z " fill="#0303FB" transform="translate(220,19)"/>
<path d="M0 0 C0.33 0 0.66 0 1 0 C0.43650159 7.93743866 -1.03461556 15.55100073 -2.75 23.3125 C-3.150979 25.14288818 -3.150979 25.14288818 -3.56005859 27.01025391 C-4.10600114 29.48918945 -4.65528679 31.96739124 -5.20800781 34.44482422 C-5.71281782 36.71086716 -6.21269584 38.97801843 -6.70605469 41.24658203 C-7.33252609 44.125852 -7.9756483 47.00081609 -8.625 49.875 C-8.80643555 50.71716064 -8.98787109 51.55932129 -9.17480469 52.42700195 C-10.49698675 58.12467061 -12.15305144 63.0478067 -17.1875 66.5 C-21.30252242 67.23155954 -25.09323748 66.45292821 -29 65 C-29.33 64.34 -29.66 63.68 -30 63 C-28.88625 62.855625 -27.7725 62.71125 -26.625 62.5625 C-23.17857953 62.21627965 -23.17857953 62.21627965 -21 61 C-18.375 61.9375 -18.375 61.9375 -16 63 C-16.33 61.68 -16.66 60.36 -17 59 C-14.525 58.505 -14.525 58.505 -12 58 C-11.896875 56.948125 -11.79375 55.89625 -11.6875 54.8125 C-11.22650634 51.07186569 -10.44286382 47.47623629 -9.5625 43.8125 C-8.25363118 38.31016797 -7.28465124 32.82963461 -6.47265625 27.234375 C-5.72863297 22.14304213 -4.85920237 17.07295013 -4 12 C-3.34 12 -2.68 12 -2 12 C-2 9.36 -2 6.72 -2 4 C-1.34 4 -0.68 4 0 4 C0 2.68 0 1.36 0 0 Z " fill="#7B7CEE" transform="translate(201,140)"/>
<path d="M0 0 C0.33 0 0.66 0 1 0 C0.49291773 6.72238606 -0.57485287 13.03949118 -2.25 19.5625 C-4.58030229 28.92745058 -6.51948961 38.34009694 -8.29980469 47.82446289 C-8.49348633 48.8324292 -8.68716797 49.84039551 -8.88671875 50.87890625 C-9.05389404 51.7716626 -9.22106934 52.66441895 -9.39331055 53.58422852 C-9.9888105 55.95544461 -10.81903025 57.8676849 -12 60 C-12.39103033 54.26488846 -11.19187865 49.44704728 -9.73046875 43.91015625 C-8.58258608 39.33704082 -8.11249238 34.85868088 -7.828125 30.16015625 C-7.45014022 24.39588837 -6.73116938 19.45277532 -4.69140625 14.04296875 C-3.99993672 11.99981303 -3.67611454 10.13885396 -3.4375 8 C-3.293125 7.01 -3.14875 6.02 -3 5 C-2.34 4.67 -1.68 4.34 -1 4 C-0.34786708 1.97536745 -0.34786708 1.97536745 0 0 Z " fill="#5B5AE8" transform="translate(216,70)"/>
<path d="M0 0 C0.66 0.33 1.32 0.66 2 1 C1.401875 1.70125 0.80375 2.4025 0.1875 3.125 C-2.10892573 5.9280919 -2.10892573 5.9280919 -3.5 9.25 C-5 12 -5 12 -7 12.8125 C-7.66 12.874375 -8.32 12.93625 -9 13 C-12.11332248 13.66868314 -12.11332248 13.66868314 -13.1875 16.0625 C-13.455625 16.701875 -13.72375 17.34125 -14 18 C-14.99 18 -15.98 18 -17 18 C-17.08378906 18.60199219 -17.16757813 19.20398438 -17.25390625 19.82421875 C-18.22287176 22.64994539 -19.4041551 23.29615793 -21.9375 24.8125 C-22.64777344 25.25207031 -23.35804688 25.69164063 -24.08984375 26.14453125 C-24.72019531 26.42683594 -25.35054687 26.70914063 -26 27 C-26.66 26.67 -27.32 26.34 -28 26 C-23.885005 21.76927077 -19.65464769 17.75484234 -15.1875 13.8984375 C-12.66371085 11.70814906 -10.17350445 9.48306795 -7.6875 7.25 C-6.86636719 6.51265625 -6.04523438 5.7753125 -5.19921875 5.015625 C-3.41784172 3.38295973 -1.68888962 1.72714925 0 0 Z " fill="#5857EB" transform="translate(161,75)"/>
<path d="M0 0 C-0.33 0.66 -0.66 1.32 -1 2 C-3.50390625 2.6328125 -3.50390625 2.6328125 -6.5625 3.125 C-8.08037109 3.37636719 -8.08037109 3.37636719 -9.62890625 3.6328125 C-10.80259766 3.81457031 -10.80259766 3.81457031 -12 4 C-12.33 4.99 -12.66 5.98 -13 7 C-13.99 7 -14.98 7 -16 7 C-16 7.66 -16 8.32 -16 9 C-16.99 9 -17.98 9 -19 9 C-18.67 10.98 -18.34 12.96 -18 15 C-17.38125 15.0825 -16.7625 15.165 -16.125 15.25 C-14 16 -14 16 -12.75 18.0625 C-12.5025 18.701875 -12.255 19.34125 -12 20 C-15.03002206 19.66333088 -16.84001182 19.1094656 -19.375 17.375 C-21 15 -21 15 -21.3125 11.625 C-19.37947975 6.28618217 -15.94174232 4.49727742 -11 2 C-2.89223058 -1.44611529 -2.89223058 -1.44611529 0 0 Z " fill="#6B68EA" transform="translate(21,93)"/>
<path d="M0 0 C2.86942113 2.26533247 3.83907612 3.51722837 5 7 C5.06802967 8.72795352 5.08495645 10.45835365 5.0625 12.1875 C5.05347656 13.08855469 5.04445312 13.98960938 5.03515625 14.91796875 C5.02355469 15.60503906 5.01195312 16.29210937 5 17 C4.34 17.33 3.68 17.66 3 18 C2.95101562 17.21753906 2.90203125 16.43507813 2.8515625 15.62890625 C2.77679688 14.61699219 2.70203125 13.60507812 2.625 12.5625 C2.55539063 11.55316406 2.48578125 10.54382813 2.4140625 9.50390625 C2.27742188 8.67761719 2.14078125 7.85132813 2 7 C1.34 6.67 0.68 6.34 0 6 C0 4.68 0 3.36 0 2 C-7.92 2.495 -7.92 2.495 -16 3 C-10.59181434 -0.60545711 -6.37707699 -1.65331626 0 0 Z " fill="#5B5BE7" transform="translate(220,19)"/>
<path d="M0 0 C1.65 0 3.3 0 5 0 C3.3524116 1.35683751 1.68083079 2.68456721 0 4 C-0.94875 4.763125 -1.8975 5.52625 -2.875 6.3125 C-6.75139869 8.40575529 -8.94877778 8.18806335 -13 7 C-17.0277363 5.74164826 -21.02106511 4.40471429 -25 3 C-21.25649693 1.67551734 -18.29001119 2.29874654 -14.4375 3 C-9.66149476 3.94904693 -9.66149476 3.94904693 -5 3 C-4.67 2.34 -4.34 1.68 -4 1 C-2.68 1.33 -1.36 1.66 0 2 C0 1.34 0 0.68 0 0 Z " fill="#605FE9" transform="translate(67,121)"/>
<path d="M0 0 C1.32 0 2.64 0 4 0 C3.67995042 2.96045858 3.40971004 4.57511551 1.3125 6.75 C-1.61955926 8.3348969 -3.65372011 8.86877334 -7 9 C-9.49911439 8.21054133 -11.64167758 7.17916121 -14 6 C-14 5.67 -14 5.34 -14 5 C-12.88625 4.855625 -11.7725 4.71125 -10.625 4.5625 C-7.17857953 4.21627965 -7.17857953 4.21627965 -5 3 C-2.375 3.9375 -2.375 3.9375 0 5 C-0.2784375 4.0409375 -0.2784375 4.0409375 -0.5625 3.0625 C-0.706875 2.381875 -0.85125 1.70125 -1 1 C-0.67 0.67 -0.34 0.34 0 0 Z " fill="#4341E9" transform="translate(185,198)"/>
<path d="M0 0 C0 4.00036416 -1.38393035 5.03040742 -4 8 C-4.8559375 8.70769531 -5.711875 9.41539062 -6.59375 10.14453125 C-9.76566673 13.90860776 -9.77411416 16.53986011 -9.8125 21.3125 C-9.83763672 22.05306641 -9.86277344 22.79363281 -9.88867188 23.55664062 C-9.94718443 25.37052969 -9.97654349 27.18531903 -10 29 C-12.13246335 25.51128995 -12.32815608 22.61449891 -12.375 18.5625 C-12.40335937 17.45003906 -12.43171875 16.33757812 -12.4609375 15.19140625 C-11.65939004 9.64170901 -7.86328609 6.68379317 -3.75 3.1875 C-3.04359375 2.58292969 -2.3371875 1.97835937 -1.609375 1.35546875 C-1.07828125 0.90816406 -0.5471875 0.46085938 0 0 Z " fill="#5451E6" transform="translate(99,131)"/>
<path d="M0 0 C0.33 0 0.66 0 1 0 C0.99476318 0.82725586 0.98952637 1.65451172 0.98413086 2.50683594 C0.96334531 6.25454957 0.95033476 10.00225106 0.9375 13.75 C0.92912109 15.05195313 0.92074219 16.35390625 0.91210938 17.6953125 C0.90888672 18.94570312 0.90566406 20.19609375 0.90234375 21.484375 C0.89448853 23.21252441 0.89448853 23.21252441 0.88647461 24.97558594 C1.00266282 28.58582678 1.00266282 28.58582678 2 32 C2.99 32.33 3.98 32.66 5 33 C1.535 33.495 1.535 33.495 -2 34 C-1.49945871 22.65171498 -0.9869401 11.3183131 0 0 Z " fill="#7F7DEE" transform="translate(86,161)"/>
<path d="M0 0 C-0.33 1.32 -0.66 2.64 -1 4 C-1 3.01 -1 2.02 -1 1 C-10.30218027 5.4807948 -10.30218027 5.4807948 -19 11 C-19.66 10.67 -20.32 10.34 -21 10 C-20.67 9.01 -20.34 8.02 -20 7 C-18.35 7 -16.7 7 -15 7 C-14.773125 6.21625 -14.54625 5.4325 -14.3125 4.625 C-13 2 -13 2 -10.875 0.6875 C-7.13483134 -0.20688816 -3.84288702 -0.13026736 0 0 Z " fill="#5656EB" transform="translate(185,52)"/>
<path d="M0 0 C0.66 0.33 1.32 0.66 2 1 C-0.17763886 4.2664583 -0.64286521 4.49483892 -4.1875 5.5625 C-5.38246094 5.92988281 -5.38246094 5.92988281 -6.6015625 6.3046875 C-7.39304687 6.53414063 -8.18453125 6.76359375 -9 7 C-9.70898438 7.20882812 -10.41796875 7.41765625 -11.1484375 7.6328125 C-12.76221359 8.10047822 -14.38062967 8.55208906 -16 9 C-16.66 8.34 -17.32 7.68 -18 7 C-15.56292162 6.0197729 -13.12536055 5.04077829 -10.6875 4.0625 C-9.99720703 3.78470703 -9.30691406 3.50691406 -8.59570312 3.22070312 C-5.74732227 2.07859872 -2.91209306 0.97069769 0 0 Z " fill="#4F4EE7" transform="translate(53,79)"/>
<path d="M0 0 C6.93 0.495 6.93 0.495 14 1 C14 1.66 14 2.32 14 3 C15.65 3.33 17.3 3.66 19 4 C19 4.66 19 5.32 19 6 C19.66 6.33 20.32 6.66 21 7 C13.65313537 5.78880323 6.92810652 3.71328887 0 1 C0 0.67 0 0.34 0 0 Z " fill="#5E5EEB" transform="translate(20,116)"/>
<path d="M0 0 C2.31 0 4.62 0 7 0 C7 0.66 7 1.32 7 2 C8.98 1.67 10.96 1.34 13 1 C13.144375 1.598125 13.28875 2.19625 13.4375 2.8125 C13.8872439 4.56150404 14.42892341 6.28677023 15 8 C12.25648576 7.00928652 10.21135401 6.18493476 8 4.25 C7.34 3.8375 6.68 3.425 6 3 C3.26601865 3.70957237 3.26601865 3.70957237 1 5 C0.67 3.35 0.34 1.7 0 0 Z " fill="#4444E6" transform="translate(115,165)"/>
<path d="M0 0 C0.66 0.33 1.32 0.66 2 1 C1.38125 1.556875 0.7625 2.11375 0.125 2.6875 C-2.06106379 5.06645178 -2.98785699 6.96357096 -4 10 C-4.66 10 -5.32 10 -6 10 C-6 10.66 -6 11.32 -6 12 C-8.64 12.66 -11.28 13.32 -14 14 C-10.12814498 9.03918575 -5.79125711 5.06361292 -1 1 C-0.67 0.67 -0.34 0.34 0 0 Z " fill="#5A58EC" transform="translate(179,59)"/>
<path d="M0 0 C0 0.99 0 1.98 0 3 C-1.32 3.33 -2.64 3.66 -4 4 C-4.08378906 4.60199219 -4.16757813 5.20398438 -4.25390625 5.82421875 C-5.22287176 8.64994539 -6.4041551 9.29615793 -8.9375 10.8125 C-9.64777344 11.25207031 -10.35804688 11.69164063 -11.08984375 12.14453125 C-12.03537109 12.56798828 -12.03537109 12.56798828 -13 13 C-13.66 12.67 -14.32 12.34 -15 12 C-10.44784655 7.0637586 -5.85300518 3.29896656 0 0 Z " fill="#4442E8" transform="translate(148,89)"/>
<path d="M0 0 C0.33 0 0.66 0 1 0 C0.48400816 7.8822202 -1.0921453 15.34458305 -3 23 C-3.33 23 -3.66 23 -4 23 C-4.20289367 10.5333109 -4.20289367 10.5333109 -3 5 C-2.34 4.67 -1.68 4.34 -1 4 C-0.34786708 1.97536745 -0.34786708 1.97536745 0 0 Z " fill="#7776EF" transform="translate(216,70)"/>
<path d="M0 0 C-0.33 0.99 -0.66 1.98 -1 3 C-2.98 3 -4.96 3 -7 3 C-7.33 3.99 -7.66 4.98 -8 6 C-12.32448133 6.73832608 -16.65535464 7.39174965 -21 8 C-17.66020504 5.77347003 -14.20661927 4.35058748 -10.5 2.875 C-9.82324219 2.59785156 -9.14648438 2.32070313 -8.44921875 2.03515625 C-5.4845715 0.84812786 -3.22319504 0 0 0 Z " fill="#6D70EB" transform="translate(110,58)"/>
<path d="M0 0 C0 0.99 0 1.98 0 3 C0.66 3.33 1.32 3.66 2 4 C-1 6 -1 6 -3.4375 5.875 C-6.18554622 5.74511775 -6.18554622 5.74511775 -8.3125 8 C-8.869375 8.66 -9.42625 9.32 -10 10 C-10.66 9.67 -11.32 9.34 -12 9 C-10.38050958 7.49405319 -8.75424026 5.99539332 -7.125 4.5 C-6.22007812 3.6646875 -5.31515625 2.829375 -4.3828125 1.96875 C-2 0 -2 0 0 0 Z " fill="#0403E8" transform="translate(139,99)"/>
<path d="M0 0 C0.33 0.66 0.66 1.32 1 2 C0.01 2 -0.98 2 -2 2 C-1.67 3.98 -1.34 5.96 -1 8 C-0.38125 8.0825 0.2375 8.165 0.875 8.25 C3 9 3 9 4.25 11.0625 C4.4975 11.701875 4.745 12.34125 5 13 C1.96997794 12.66333088 0.15998818 12.1094656 -2.375 10.375 C-4 8 -4 8 -3.75 4.25 C-3.5025 3.1775 -3.255 2.105 -3 1 C-2.01 0.67 -1.02 0.34 0 0 Z " fill="#5456E2" transform="translate(4,100)"/>
<path d="M0 0 C1.65 0 3.3 0 5 0 C5 0.99 5 1.98 5 3 C1.04 4.98 1.04 4.98 -3 7 C-3.33 6.01 -3.66 5.02 -4 4 C-3.01 4 -2.02 4 -1 4 C-0.67 2.68 -0.34 1.36 0 0 Z " fill="#4344E4" transform="translate(80,111)"/>
<path d="M0 0 C1.32 0 2.64 0 4 0 C4 0.66 4 1.32 4 2 C5.32 2 6.64 2 8 2 C8 2.66 8 3.32 8 4 C8.66 4 9.32 4 10 4 C10.33 5.32 10.66 6.64 11 8 C6.99698968 6.23867546 3.3971023 3.73867517 0 1 C0 0.67 0 0.34 0 0 Z " fill="#5653E7" transform="translate(157,193)"/>
<path d="M0 0 C2 2 2 2 2.125 4.625 C2.08375 5.40875 2.0425 6.1925 2 7 C1.34 7 0.68 7 0 7 C-0.33 9.64 -0.66 12.28 -1 15 C-1.33 15 -1.66 15 -2 15 C-1.85973717 12.68715544 -1.71264442 10.37472409 -1.5625 8.0625 C-1.48128906 6.77472656 -1.40007812 5.48695312 -1.31640625 4.16015625 C-1 1 -1 1 0 0 Z " fill="#2B29DE" transform="translate(222,35)"/>
<path d="M0 0 C0.66 0.99 1.32 1.98 2 3 C0.95125002 5.62187494 0.35068687 6.79371361 -2.125 8.25 C-2.74375 8.4975 -3.3625 8.745 -4 9 C-3.67 7.35 -3.34 5.7 -3 4 C-2.01 3.67 -1.02 3.34 0 3 C0 2.01 0 1.02 0 0 Z " fill="#201FEE" transform="translate(185,53)"/>
<path d="M0 0 C-5.37899794 3.54784971 -9.58076669 4.70887831 -16 5 C-13.50448842 2.50448842 -11.33923374 1.92424008 -8 0.8125 C-6.9275 0.44769531 -5.855 0.08289063 -4.75 -0.29296875 C-2 -1 -2 -1 0 0 Z " fill="#7B7AEB" transform="translate(191,28)"/>
<path d="M0 0 C0.144375 0.78375 0.28875 1.5675 0.4375 2.375 C0.87798925 4.96421018 0.87798925 4.96421018 2 7 C-1.91402949 5.73058503 -3.79072873 4.48832306 -6 1 C-3.92446352 0.4465236 -2.15634036 0 0 0 Z " fill="#5754EB" transform="translate(136,172)"/>
<path d="M0 0 C2.31 0 4.62 0 7 0 C7.33 0.99 7.66 1.98 8 3 C7.21625 3.144375 6.4325 3.28875 5.625 3.4375 C3.03578982 3.87798925 3.03578982 3.87798925 1 5 C0.67 3.35 0.34 1.7 0 0 Z " fill="#4D4CE9" transform="translate(115,165)"/>
<path d="M0 0 C-0.33 0.99 -0.66 1.98 -1 3 C-4.375 3.625 -4.375 3.625 -8 4 C-8.66 3.34 -9.32 2.68 -10 2 C-3.375 -1.125 -3.375 -1.125 0 0 Z " fill="#5654EA" transform="translate(81,70)"/>
<path d="M0 0 C0.33 0 0.66 0 1 0 C0.88512252 1.58409994 0.75765492 3.16728963 0.625 4.75 C0.52058594 6.07257813 0.52058594 6.07257813 0.4140625 7.421875 C0 10 0 10 -2 14 C-2 10.7 -2 7.4 -2 4 C-1.34 4 -0.68 4 0 4 C0 2.68 0 1.36 0 0 Z " fill="#8A8CF3" transform="translate(201,140)"/>
<path d="M0 0 C-0.33 0.99 -0.66 1.98 -1 3 C-4.375 3.625 -4.375 3.625 -8 4 C-8.66 3.34 -9.32 2.68 -10 2 C-8.71211992 1.46987262 -7.41953322 0.9511671 -6.125 0.4375 C-5.40570313 0.14746094 -4.68640625 -0.14257812 -3.9453125 -0.44140625 C-2 -1 -2 -1 0 0 Z " fill="#514FE9" transform="translate(154,42)"/>
<path d="M0 0 C-0.66 1.65 -1.32 3.3 -2 5 C-4.475 4.01 -4.475 4.01 -7 3 C-7 2.34 -7 1.68 -7 1 C-4.53721199 -0.231394 -2.7204945 -0.07159196 0 0 Z " fill="#0402EC" transform="translate(16,96)"/>
<path d="M0 0 C-2.35277269 2.72426311 -4.62496331 3.8141763 -8 5 C-7.625 2.5625 -7.625 2.5625 -7 0 C-4.3333581 -1.33332095 -2.83319697 -0.67102033 0 0 Z " fill="#5451EC" transform="translate(121,90)"/>
<path d="M0 0 C1.65 0 3.3 0 5 0 C2.31158141 2.25245881 0.35358125 3.88213958 -3 5 C-3.99 4.34 -4.98 3.68 -6 3 C-4.02 2.34 -2.04 1.68 0 1 C0 0.67 0 0.34 0 0 Z " fill="#4B4BED" transform="translate(156,65)"/>
<path d="M0 0 C1.32 0 2.64 0 4 0 C3.75 2.375 3.75 2.375 3 5 C0.9375 6.3125 0.9375 6.3125 -1 7 C-1.04254356 5.00045254 -1.04080783 2.99958364 -1 1 C-0.67 0.67 -0.34 0.34 0 0 Z " fill="#504DE7" transform="translate(185,198)"/>
<path d="M0 0 C0.144375 0.598125 0.28875 1.19625 0.4375 1.8125 C0.8872439 3.56150404 1.42892341 5.28677023 2 7 C-1.65316671 5.75023244 -2.78065836 5.32901247 -5 2 C-3.35 1.34 -1.7 0.68 0 0 Z " fill="#4D4CE8" transform="translate(143,177)"/>
<path d="M0 0 C0.99 0.33 1.98 0.66 3 1 C0.31158141 3.25245881 -1.64641875 4.88213958 -5 6 C-5.33 4.68 -5.66 3.36 -6 2 C-4.02 2 -2.04 2 0 2 C0 1.34 0 0.68 0 0 Z " fill="#5554EB" transform="translate(109,95)"/>
<path d="M0 0 C1.65 0 3.3 0 5 0 C3.35 1.98 1.7 3.96 0 6 C-0.66 5.67 -1.32 5.34 -2 5 C-1.34 3.35 -0.68 1.7 0 0 Z " fill="#6261EA" transform="translate(93,187)"/>
<path d="M0 0 C0.33 0.66 0.66 1.32 1 2 C0.01 3.32 -0.98 4.64 -2 6 C-3.32 5.67 -4.64 5.34 -6 5 C-4.02 3.35 -2.04 1.7 0 0 Z " fill="#6B6AE9" transform="translate(115,117)"/>
<path d="M0 0 C1.65 0 3.3 0 5 0 C2.31158141 2.25245881 0.35358125 3.88213958 -3 5 C-3 4.01 -3 3.02 -3 2 C-2.01 2 -1.02 2 0 2 C0 1.34 0 0.68 0 0 Z " fill="#5354E5" transform="translate(89,107)"/>
</svg>
