<?xml version="1.0" encoding="utf-8"?>
<!-- Generator: Adobe Illustrator 16.0.0, SVG Export Plug-In . SVG Version: 6.00 Build 0)  -->
<!DOCTYPE svg PUBLIC "-//W3C//DTD SVG 1.1//EN" "http://www.w3.org/Graphics/SVG/1.1/DTD/svg11.dtd">
<svg version="1.1" id="Layer_1" xmlns="http://www.w3.org/2000/svg" xmlns:xlink="http://www.w3.org/1999/xlink" x="0px" y="0px"
	viewBox="0 0 60 60" enable-background="new 0 0 60 60" xml:space="preserve">
<g>
	<defs>
		<rect id="SVGID_1_" width="60" height="60"/>
	</defs>
	<clipPath id="SVGID_2_">
		<use xlink:href="#SVGID_1_"  overflow="visible"/>
	</clipPath>
	
		<path clip-path="url(#SVGID_2_)" fill="none" stroke="#CB6686" stroke-width="2" stroke-linecap="round" stroke-linejoin="round" d="
		M54.379,59H5.621C3.069,59,1,56.932,1,54.379V5.621C1,3.069,3.069,1,5.621,1h48.758C56.931,1,59,3.069,59,5.621v48.758
		C59,56.932,56.931,59,54.379,59z"/>
	
		<path clip-path="url(#SVGID_2_)" fill="none" stroke="#CB6686" stroke-width="2" stroke-linecap="round" stroke-linejoin="round" d="
		M21.466,22.286H12.82c-0.453,0-0.82-0.367-0.82-0.819v-8.648C12,12.367,12.367,12,12.82,12h8.646c0.453,0,0.82,0.367,0.82,0.819
		v8.648C22.286,21.919,21.919,22.286,21.466,22.286z"/>
	
		<path clip-path="url(#SVGID_2_)" fill="none" stroke="#CB6686" stroke-width="2" stroke-linecap="round" stroke-linejoin="round" d="
		M47.181,22.286h-8.646c-0.453,0-0.82-0.367-0.82-0.819v-8.648c0-0.452,0.367-0.819,0.82-0.819h8.646C47.633,12,48,12.367,48,12.819
		v8.648C48,21.919,47.633,22.286,47.181,22.286z"/>
	
		<path clip-path="url(#SVGID_2_)" fill="none" stroke="#CB6686" stroke-width="2" stroke-linecap="round" stroke-linejoin="round" d="
		M43.674,31.637h-8.531v-6.193c0-0.453-0.366-0.82-0.819-0.82h-8.646c-0.453,0-0.819,0.367-0.819,0.82v6.193h-8.532
		c-0.453,0-0.819,0.367-0.819,0.818v14.726c0,0.453,0.366,0.818,0.819,0.818h4.908c0.452,0,0.818-0.365,0.818-0.817v-4.394
		c0-0.698,0.567-1.266,1.267-1.266h13.363c0.699,0,1.267,0.567,1.267,1.266v4.394c0,0.452,0.366,0.817,0.818,0.817h4.907
		c0.453,0,0.819-0.365,0.819-0.818V32.455C44.493,32.004,44.127,31.637,43.674,31.637z"/>
</g>
</svg>
