<?xml version="1.0" encoding="utf-8"?>
<!-- Generator: Adobe Illustrator 16.0.0, SVG Export Plug-In . SVG Version: 6.00 Build 0)  -->
<!DOCTYPE svg PUBLIC "-//W3C//DTD SVG 1.1//EN" "http://www.w3.org/Graphics/SVG/1.1/DTD/svg11.dtd">
<svg version="1.1" id="Layer_1" xmlns="http://www.w3.org/2000/svg" xmlns:xlink="http://www.w3.org/1999/xlink" x="0px" y="0px"
	viewBox="0 0 60 51.174" enable-background="new 0 0 60 51.174" xml:space="preserve">
<g>
	<defs>
		<rect id="SVGID_1_" width="60" height="51.174"/>
	</defs>
	<clipPath id="SVGID_2_">
		<use xlink:href="#SVGID_1_"  overflow="visible"/>
	</clipPath>
	
		<polyline clip-path="url(#SVGID_2_)" fill="none" stroke="#FF687D" stroke-width="2" stroke-linecap="round" stroke-linejoin="round" points="
		55.218,37.565 59,46.392 59,50.174 1,50.174 1,46.392 4.782,37.565 	"/>
	
		<rect x="4.783" y="1" clip-path="url(#SVGID_2_)" fill="none" stroke="#FF687D" stroke-width="2" stroke-linecap="round" stroke-linejoin="round" width="50.435" height="36.564"/>
	
		<polyline clip-path="url(#SVGID_2_)" fill="none" stroke="#FF687D" stroke-width="2" stroke-linecap="round" stroke-linejoin="round" points="
		55.218,37.565 59,46.392 59,50.174 1,50.174 1,46.392 4.782,37.565 	"/>
	
		<path clip-path="url(#SVGID_2_)" fill="none" stroke="#FF687D" stroke-width="2" stroke-linecap="round" stroke-linejoin="round" d="
		M24.957,50.174c0-2.785,2.258-5.043,5.043-5.043c2.786,0,5.044,2.258,5.044,5.043"/>
	
		<polyline clip-path="url(#SVGID_2_)" fill="none" stroke="#FF687D" stroke-width="2" stroke-linecap="round" stroke-linejoin="round" points="
		11,18.783 18,18.783 21,13.783 26,24.783 29,16.783 34,16.783 36,13.783 39,20.783 49,20.783 	"/>
</g>
</svg>
