<?xml version="1.0" encoding="utf-8"?>
<!-- Generator: Adobe Illustrator 16.0.0, SVG Export Plug-In . SVG Version: 6.00 Build 0)  -->
<!DOCTYPE svg PUBLIC "-//W3C//DTD SVG 1.1//EN" "http://www.w3.org/Graphics/SVG/1.1/DTD/svg11.dtd">
<svg version="1.1" id="Layer_1" xmlns="http://www.w3.org/2000/svg" xmlns:xlink="http://www.w3.org/1999/xlink" x="0px" y="0px"
	viewBox="0 0 60 52" enable-background="new 0 0 60 52" xml:space="preserve">
<g>
	<defs>
		<rect id="SVGID_1_" width="60" height="52"/>
	</defs>
	<clipPath id="SVGID_2_">
		<use xlink:href="#SVGID_1_"  overflow="visible"/>
	</clipPath>
	
		<path clip-path="url(#SVGID_2_)" fill="none" stroke="#FF687D" stroke-width="2" stroke-linecap="round" stroke-linejoin="round" d="
		M45.708,24.417H14.292C6.951,24.417,1,30.367,1,37.708S6.951,51,14.292,51s13.291-5.951,13.291-13.292h4.834
		c0,7.341,5.95,13.292,13.291,13.292S59,45.049,59,37.708S53.049,24.417,45.708,24.417z"/>
	
		<line clip-path="url(#SVGID_2_)" fill="none" stroke="#FF687D" stroke-width="2" stroke-linecap="round" stroke-linejoin="round" x1="14.292" y1="31.666" x2="14.292" y2="43.75"/>
	
		<line clip-path="url(#SVGID_2_)" fill="none" stroke="#FF687D" stroke-width="2" stroke-linecap="round" stroke-linejoin="round" x1="20.333" y1="37.708" x2="8.25" y2="37.708"/>
	
		<circle clip-path="url(#SVGID_2_)" fill="none" stroke="#FF687D" stroke-width="2" stroke-linecap="round" stroke-linejoin="round" cx="45.708" cy="31.666" r="2.521"/>
	
		<circle clip-path="url(#SVGID_2_)" fill="none" stroke="#FF687D" stroke-width="2" stroke-linecap="round" stroke-linejoin="round" cx="45.708" cy="43.75" r="2.521"/>
	
		<circle clip-path="url(#SVGID_2_)" fill="none" stroke="#FF687D" stroke-width="2" stroke-linecap="round" stroke-linejoin="round" cx="51.75" cy="37.708" r="2.521"/>
	
		<circle clip-path="url(#SVGID_2_)" fill="none" stroke="#FF687D" stroke-width="2" stroke-linecap="round" stroke-linejoin="round" cx="39.667" cy="37.708" r="2.521"/>
	
		<path clip-path="url(#SVGID_2_)" fill="none" stroke="#FF687D" stroke-width="2" stroke-linecap="round" stroke-linejoin="round" d="
		M45.488,9.081H14.511c-2.221,0-4.04-1.817-4.04-4.04c0-2.223,1.819-4.04,4.04-4.04h34.017"/>
	
		<path clip-path="url(#SVGID_2_)" fill="none" stroke="#FF687D" stroke-width="2" stroke-linecap="round" stroke-linejoin="round" d="
		M14.512,9.081h30.977c2.222,0,4.04,1.818,4.04,4.041c0,2.222-1.818,4.04-4.04,4.04h-9.428h-1.361c-2.222,0-4.039,1.818-4.039,4.041
		v3.214"/>
</g>
</svg>
