<?xml version="1.0" encoding="utf-8"?>
<!-- Generator: Adobe Illustrator 16.0.0, SVG Export Plug-In . SVG Version: 6.00 Build 0)  -->
<!DOCTYPE svg PUBLIC "-//W3C//DTD SVG 1.1//EN" "http://www.w3.org/Graphics/SVG/1.1/DTD/svg11.dtd">
<svg version="1.1" id="Layer_1" xmlns="http://www.w3.org/2000/svg" xmlns:xlink="http://www.w3.org/1999/xlink" x="0px" y="0px"
	 viewBox="0 0 60 60" enable-background="new 0 0 60 60" xml:space="preserve">
<g>
	<defs>
		<rect id="SVGID_1_" width="60" height="60"/>
	</defs>
	<clipPath id="SVGID_2_">
		<use xlink:href="#SVGID_1_"  overflow="visible"/>
	</clipPath>
	
		<path clip-path="url(#SVGID_2_)" fill="none" stroke="#FF687D" stroke-width="2" stroke-linecap="round" stroke-linejoin="round" d="
		M59,35.043V24.957l-6.304-1.261c-0.539-1.961-1.515-3.318-2.522-5.044l3.783-5.043l-7.566-7.566l-5.043,3.783
		c-1.726-1.008-3.083-1.983-5.044-2.522L35.043,1H24.957l-1.261,6.304c-1.961,0.539-3.318,1.514-5.044,2.522l-5.043-3.783
		l-7.566,7.566l3.783,5.043c-0.928,1.766-1.977,3.163-2.522,5.044L1,24.957v10.086l6.304,1.262c0.634,1.972,1.514,3.317,2.522,5.043
		l-3.783,5.044l7.566,7.565l5.043-3.783c1.722,1.14,3.083,1.983,5.044,2.521L24.957,59h10.086"/>
	
		<polygon clip-path="url(#SVGID_2_)" fill="none" stroke="#FF687D" stroke-width="2" stroke-linecap="round" stroke-linejoin="round" points="
		59,40 52,40 52,33 40,33 40,40 33,40 33,52 40,52 40,59 52,59 52,52 59,52 	"/>
	
		<path clip-path="url(#SVGID_2_)" fill="none" stroke="#FF687D" stroke-width="2" stroke-linecap="round" stroke-linejoin="round" d="
		M40.859,28c-0.941-5.146-5.441-9.048-10.859-9.048c-6.102,0-11.047,4.946-11.047,11.048c0,5.418,3.902,9.918,9.048,10.859"/>
</g>
</svg>
