<?xml version="1.0" encoding="utf-8"?>
<!-- Generator: Adobe Illustrator 16.0.0, SVG Export Plug-In . SVG Version: 6.00 Build 0)  -->
<!DOCTYPE svg PUBLIC "-//W3C//DTD SVG 1.1//EN" "http://www.w3.org/Graphics/SVG/1.1/DTD/svg11.dtd">
<svg version="1.1" id="Layer_1" xmlns="http://www.w3.org/2000/svg" xmlns:xlink="http://www.w3.org/1999/xlink" x="0px" y="0px"
	viewBox="0 0 60 60" enable-background="new 0 0 60 60" xml:space="preserve">
<g>
	<defs>
		<rect id="SVGID_1_" width="60" height="60"/>
	</defs>
	<clipPath id="SVGID_2_">
		<use xlink:href="#SVGID_1_"  overflow="visible"/>
	</clipPath>
	
		<path clip-path="url(#SVGID_2_)" fill="none" stroke="#181B22" stroke-width="2" stroke-linecap="round" stroke-linejoin="round" d="
		M56.479,1H3.521C2.128,1,1,2.129,1,3.521v14.195c0,1.392,1.129,2.521,2.522,2.521h52.957c1.393,0,2.521-1.129,2.521-2.521V3.521
		C58.999,2.129,57.871,1,56.479,1z"/>
	
		<line clip-path="url(#SVGID_2_)" fill="none" stroke="#181B22" stroke-width="2" stroke-linecap="round" stroke-linejoin="round" x1="7.305" y1="10.618" x2="12.348" y2="10.618"/>
	
		<line clip-path="url(#SVGID_2_)" fill="none" stroke="#181B22" stroke-width="2" stroke-linecap="round" stroke-linejoin="round" x1="52.695" y1="10.618" x2="53.956" y2="10.618"/>
	
		<line clip-path="url(#SVGID_2_)" fill="none" stroke="#181B22" stroke-width="2" stroke-linecap="round" stroke-linejoin="round" x1="46.392" y1="10.618" x2="47.652" y2="10.618"/>
	
		<path clip-path="url(#SVGID_2_)" fill="none" stroke="#181B22" stroke-width="2" stroke-linecap="round" stroke-linejoin="round" d="
		M3.521,20.237C2.128,20.237,1,21.366,1,22.758v14.195c0,1.393,1.128,2.521,2.521,2.521h52.957c1.393,0,2.522-1.129,2.522-2.521
		V22.758c0-1.392-1.13-2.521-2.522-2.521"/>
	
		<line clip-path="url(#SVGID_2_)" fill="none" stroke="#181B22" stroke-width="2" stroke-linecap="round" stroke-linejoin="round" x1="7.305" y1="29.855" x2="12.348" y2="29.855"/>
	
		<line clip-path="url(#SVGID_2_)" fill="none" stroke="#181B22" stroke-width="2" stroke-linecap="round" stroke-linejoin="round" x1="52.695" y1="29.855" x2="53.956" y2="29.855"/>
	
		<line clip-path="url(#SVGID_2_)" fill="none" stroke="#181B22" stroke-width="2" stroke-linecap="round" stroke-linejoin="round" x1="46.392" y1="29.855" x2="47.652" y2="29.855"/>
	
		<line clip-path="url(#SVGID_2_)" fill="none" stroke="#181B22" stroke-width="2" stroke-linecap="round" stroke-linejoin="round" x1="30" y1="39.654" x2="30" y2="48.913"/>
	
		<line clip-path="url(#SVGID_2_)" fill="none" stroke="#181B22" stroke-width="2" stroke-linecap="round" stroke-linejoin="round" x1="1" y1="53.956" x2="24.956" y2="53.956"/>
	
		<circle clip-path="url(#SVGID_2_)" fill="none" stroke="#181B22" stroke-width="2" stroke-linecap="round" stroke-linejoin="round" cx="30" cy="53.956" r="5.044"/>
	
		<line clip-path="url(#SVGID_2_)" fill="none" stroke="#181B22" stroke-width="2" stroke-linecap="round" stroke-linejoin="round" x1="35.044" y1="53.956" x2="59" y2="53.956"/>
</g>
</svg>
