<svg xmlns="http://www.w3.org/2000/svg" width="60" height="40" viewBox="0 0 60 40">
  <rect width="60" height="40" rx="4" fill="#ffffff" />
  <path d="M25.6,15.36l-5.12,12.16h-3.36l-2.56-9.84c-0.16-0.48-0.32-0.64-0.8-0.8c-0.8-0.32-2.08-0.64-3.2-0.8l0.08-0.64h5.44c0.72,0,1.28,0.48,1.44,1.28l1.28,6.88l3.2-8.16h3.6z" fill="#172784" />
  <path d="M27.04,27.52l-0.32-1.92c-0.96,0.64-2.08,1.12-3.28,1.12c-1.76,0-2.72-1.28-2.72-3.04c0-2.56,1.6-3.84,4.48-3.84c0.64,0,1.44,0.16,2.08,0.32l0.32-1.92c-0.8-0.16-1.92-0.32-2.88-0.32c-4.32,0-7.2,2.24-7.2,5.92c0,3.04,2.24,4.48,4.96,4.48C24.16,28.32,25.76,28,27.04,27.52z" fill="#172784" />
  <path d="M45.92,27.52h-2.88l0.16-1.12c-0.96,0.8-2.08,1.28-3.36,1.28c-2.08,0-3.52-1.6-3.52-3.84c0-3.36,2.4-6.24,5.92-6.24c1.44,0,2.88,0.48,3.68,1.28l0.8-4.64h3.04l-3.84,13.28z M41.44,20.8c-1.92,0-3.04,1.92-3.04,3.36c0,1.12,0.64,1.92,1.76,1.92c1.12,0,2.4-0.96,2.88-2.08l0.64-3.2h-2.24z" fill="#172784" />
  <path d="M33.92,18.4c0,0.96,0.48,1.76,1.92,2.4c1.12,0.48,1.28,0.64,1.28,1.12c0,0.64-0.48,0.96-1.44,0.96c-0.96,0-1.76-0.16-2.72-0.64l-0.48,2.08c0.8,0.32,2.24,0.64,3.2,0.64c3.04,0,4.48-1.12,4.48-3.36c0-1.12-0.48-1.92-1.92-2.56c-1.12-0.48-1.28-0.64-1.28-1.12c0-0.48,0.48-0.8,1.28-0.8c0.8,0,1.6,0.16,2.4,0.48l0.48-2.08c-0.8-0.32-1.92-0.48-2.88-0.48C35.36,15.04,33.92,16.48,33.92,18.4z" fill="#172784" />
  <path d="M19.84,15.36l-5.12,12.16h5.12z" fill="#F9A533" />
  <path d="M45.92,27.52h-2.88l0.16-1.12c-0.64,0.48-1.28,0.8-1.92,0.96l0.64-3.2c0,0.64,0.32,1.12,0.96,1.12c0.48,0,0.96-0.16,1.28-0.48l1.76-9.44h3.04l-3.84,13.28z" fill="#F9A533" />
</svg> 